HIERARCHY
ROOT hip
{
  OFFSET 0 0 0
  CHANNELS 6 Xposition Yposition Zposition Zrotation Yrotation Xrotation
  JOINT abdomen
  {
    OFFSET 0 20.6881 -0.73152
    CHANNELS 3 Zrotation Xrotation Yrotation
    JOINT chest
    {
      OFFSET 0 11.7043 -0.48768
      CHANNELS 3 Zrotation Xrotation Yrotation
      JOINT neck
      {
        OFFSET 0 22.1894 -2.19456
        CHANNELS 3 Zrotation Xrotation Yrotation
        JOINT head
        {
          OFFSET -0.24384 7.07133 1.2192
          CHANNELS 3 Zrotation Xrotation Yrotation
          JOINT leftEye
          {
            OFFSET 4.14528 8.04674 8.04672
            CHANNELS 3 Zrotation Xrotation Yrotation
            End Site
            {
              OFFSET 1 0 0
            }
          }
          JOINT rightEye
          {
            OFFSET -3.6576 8.04674 8.04672
            CHANNELS 3 Zrotation Xrotation Yrotation
            End Site
            {
              OFFSET 1 0 0
            }
          }
        }
      }
      JOINT rCollar
      {
        OFFSET -2.68224 19.2634 -4.8768
        CHANNELS 3 Zrotation Xrotation Yrotation
        JOINT rShldr
        {
          OFFSET -8.77824 -1.95073 1.46304
          CHANNELS 3 Zrotation Xrotation Yrotation
          JOINT rForeArm
          {
            OFFSET -28.1742 -1.7115 0.48768
            CHANNELS 3 Zrotation Xrotation Yrotation
            JOINT rHand
            {
              OFFSET -22.5879 0.773209 7.07136
              CHANNELS 3 Zrotation Xrotation Yrotation
              JOINT rThumb1
              {
                OFFSET -1.2192 -0.487915 3.41376
                CHANNELS 3 Zrotation Xrotation Yrotation
                JOINT rThumb2
                {
                  OFFSET -3.37035 -0.52449 3.41376
                  CHANNELS 3 Zrotation Xrotation Yrotation
                  End Site
                  {
                    OFFSET -1.78271 -1.18214 1.43049
                  }
                }
              }
              JOINT rIndex1
              {
                OFFSET -7.75947 0.938293 5.60832
                CHANNELS 3 Zrotation Xrotation Yrotation
                JOINT rIndex2
                {
                  OFFSET -2.54057 -0.884171 1.56538
                  CHANNELS 3 Zrotation Xrotation Yrotation
                  End Site
                  {
                    OFFSET -1.62519 -0.234802 1.16502
                  }
                }
              }
              JOINT rMid1
              {
                OFFSET -8.24714 1.18213 3.41376
                CHANNELS 3 Zrotation Xrotation Yrotation
                JOINT rMid2
                {
                  OFFSET -3.10165 -0.590103 1.0647
                  CHANNELS 3 Zrotation Xrotation Yrotation
                  End Site
                  {
                    OFFSET -2.48547 -0.328903 0.83742
                  }
                }
              }
              JOINT rRing1
              {
                OFFSET -8.82822 0.546677 1.51678
                CHANNELS 3 Zrotation Xrotation Yrotation
                JOINT rRing2
                {
                  OFFSET -2.60934 -0.819778 -0.0198488
                  CHANNELS 3 Zrotation Xrotation Yrotation
                  End Site
                  {
                    OFFSET -2.33842 -0.294052 0.168128
                  }
                }
              }
              JOINT rPinky1
              {
                OFFSET -8.27202 -0.0477905 -0.4584
                CHANNELS 3 Zrotation Xrotation Yrotation
                JOINT rPinky2
                {
                  OFFSET -1.82734 -0.647385 -0.700984
                  CHANNELS 3 Zrotation Xrotation Yrotation
                  End Site
                  {
                    OFFSET -1.69225 -0.51767 -0.607171
                  }
                }
              }
            }
          }
        }
      }
      JOINT lCollar
      {
        OFFSET 2.68224 19.2634 -4.8768
        CHANNELS 3 Zrotation Xrotation Yrotation
        JOINT lShldr
        {
          OFFSET 8.77824 -1.95073 1.46304
          CHANNELS 3 Zrotation Xrotation Yrotation
          JOINT lForeArm
          {
            OFFSET 28.1742 -1.7115 0.48768
            CHANNELS 3 Zrotation Xrotation Yrotation
            JOINT lHand
            {
              OFFSET 22.5879 0.773209 7.07136
              CHANNELS 3 Zrotation Xrotation Yrotation
              JOINT lThumb1
              {
                OFFSET 1.2192 -0.487915 3.41376
                CHANNELS 3 Zrotation Xrotation Yrotation
                JOINT lThumb2
                {
                  OFFSET 3.37035 -0.52449 3.41376
                  CHANNELS 3 Zrotation Xrotation Yrotation
                  End Site
                  {
                    OFFSET 1.78271 -1.18214 1.43049
                  }
                }
              }
              JOINT lIndex1
              {
                OFFSET 7.75947 0.938293 5.60832
                CHANNELS 3 Zrotation Xrotation Yrotation
                JOINT lIndex2
                {
                  OFFSET 2.54057 -0.884171 1.56538
                  CHANNELS 3 Zrotation Xrotation Yrotation
                  End Site
                  {
                    OFFSET 1.62519 -0.234802 1.16502
                  }
                }
              }
              JOINT lMid1
              {
                OFFSET 8.24714 1.18213 3.41376
                CHANNELS 3 Zrotation Xrotation Yrotation
                JOINT lMid2
                {
                  OFFSET 3.10165 -0.590103 1.0647
                  CHANNELS 3 Zrotation Xrotation Yrotation
                  End Site
                  {
                    OFFSET 2.48547 -0.328903 0.83742
                  }
                }
              }
              JOINT lRing1
              {
                OFFSET 8.82822 0.546677 1.51678
                CHANNELS 3 Zrotation Xrotation Yrotation
                JOINT lRing2
                {
                  OFFSET 2.60934 -0.819778 -0.0198488
                  CHANNELS 3 Zrotation Xrotation Yrotation
                  End Site
                  {
                    OFFSET 2.33842 -0.294052 0.168128
                  }
                }
              }
              JOINT lPinky1
              {
                OFFSET 8.27202 -0.0477905 -0.4584
                CHANNELS 3 Zrotation Xrotation Yrotation
                JOINT lPinky2
                {
                  OFFSET 1.82734 -0.647385 -0.700984
                  CHANNELS 3 Zrotation Xrotation Yrotation
                  End Site
                  {
                    OFFSET 1.69225 -0.51767 -0.607171
                  }
                }
              }
            }
          }
        }
      }
    }
  }
  JOINT rButtock
  {
    OFFSET -8.77824 4.35084 1.2192
    CHANNELS 3 Zrotation Xrotation Yrotation
    JOINT rThigh
    {
      OFFSET 0 -1.70687 -2.19456
      CHANNELS 3 Zrotation Xrotation Yrotation
      JOINT rShin
      {
        OFFSET 0 -36.8199 0.73152
        CHANNELS 3 Zrotation Xrotation Yrotation
        JOINT rFoot
        {
          OFFSET 0.73152 -45.1104 -5.12064
          CHANNELS 3 Zrotation Xrotation Yrotation
          End Site
          {
            OFFSET -1.1221 -3.69964 12.103
          }
        }
      }
    }
  }
  JOINT lButtock
  {
    OFFSET 8.77824 4.35084 1.2192
    CHANNELS 3 Zrotation Xrotation Yrotation
    JOINT lThigh
    {
      OFFSET 0 -1.70687 -2.19456
      CHANNELS 3 Zrotation Xrotation Yrotation
      JOINT lShin
      {
        OFFSET 0 -36.8199 0.73152
        CHANNELS 3 Zrotation Xrotation Yrotation
        JOINT lFoot
        {
          OFFSET -0.73152 -45.1104 -5.12064
          CHANNELS 3 Zrotation Xrotation Yrotation
          End Site
          {
            OFFSET 1.1221 -3.69964 12.103
          }
        }
      }
    }
  }
}
MOTION
Frames:	4
Frame Time:	0.03333
0.4842 47.1482 201.504 -17.577829 -24.209019 15.805902 11.466548 5.825055 -0.697719 1.988139 -7.266649 5.775778 11.081023 24.526522 111.273889 -33.275087 14.911662 -88.281732 -0.00025 0.0 -0.000921 -0.00025 0.0 -0.000921 0.16273 -0.990145 -0.217906 -42.796875 -46.563133 -101.887043 0.199935 -51.053205 -144.916084 -152.884486 21.902047 134.250064 -166.631004 -4.305002 89.771526 -158.572882 -1.684147 81.242509 -1.397047 2.231538 0.808379 -178.045415 -34.280125 106.360737 -152.826433 14.792866 138.513653 -6.07637 23.473294 5.507726 -145.12016 0.310555 -179.224797 -66.985282 87.687661 80.229201 -119.618094 -34.545237 -117.516684 -152.310764 29.750803 -145.592227 -3.191844 -25.838843 5.074984 -87.321023 -19.720834 -65.082523 -11.171227 3.273116 -15.314444 157.757227 77.218575 -155.166566 10.480029 9.911229 -2.49254 -28.168428 -35.449459 9.454544 151.351063 -17.158969 -121.133238 157.092226 -6.729837 -119.277468 164.181992 -17.817966 -144.602436 163.330195 -4.77921 -142.967393 69.29733 72.945304 -87.017935 159.82388 -1.726859 -176.398351 24.988358 -37.659452 24.060368 146.4731 11.157125 143.274561 179.906575 75.750376 0.072008 108.912026 77.988883 -108.526533 -13.859812 -34.604965 -119.562411 -23.456065 6.355016 -101.870663 0.000433 0.001856 -0.000557 97.833858 -54.743966 -0.0 -86.454523 -2.822032 -0.037887 147.771156 13.974753 -83.552763
0.39769999999999994 46.8329 201.87499999999997 -17.505997 -24.289205 15.833896 13.758068 3.12256 -92.287051 4.807523 -0.205895 97.285312 8.490225 15.718418 58.582778 -24.096075 -13.47851 -42.754757 -0.00075 0.0 -0.000645 -0.00075 0.0 -0.000645 -153.592102 -75.693559 -178.262162 132.537546 6.565349 -163.254862 170.809819 30.031922 41.062824 -142.569837 35.717553 123.604243 -174.39199 -12.05212 89.859261 -145.714015 8.178072 75.568375 2.324933 -3.868122 -1.258971 -151.670674 -0.142867 109.372543 -153.321828 13.628806 138.861385 -1.994952 14.273137 2.930611 -0.001478 -0.060715 -0.019937 9.23915 12.71956 1.665835 -152.200727 37.329955 -147.582839 -26.022836 -40.241635 -26.849962 83.245099 68.286806 -86.37264 51.530836 -0.101358 0.678062 -5.331544 3.956346 49.045459 -88.771561 -60.810017 -93.052025 2.608443 2.5546 -0.457044 137.22231 -40.288116 -117.330057 46.209357 39.651846 -36.319097 -12.993118 -9.73763 3.380056 0.569634 1.648573 -0.322323 163.986692 -6.976615 -143.571315 145.115753 -0.356292 179.016462 76.112955 -77.983083 97.671301 -26.97383 80.122852 -10.135403 -68.512789 85.121494 31.289321 179.999407 75.750236 0.000612 102.069873 79.296695 0.0 -35.362748 5.195423 12.570374 92.379849 9.86048 5.203794 -179.999806 75.750236 -0.0 -143.344512 -16.072524 -66.599436 -86.701053 18.356595 -1.447877 151.107869 -2.532759 -89.308564
0.35100000000000003 46.5474 202.13899999999998 -17.594613 -24.223532 16.08798 9.140399 2.607745 94.930088 -5.0804 -4.008922 -90.314401 11.213688 23.998889 108.308371 -33.458756 13.498163 -85.706696 4.1e-05 0.0 0.000432 4.1e-05 0.0 0.000432 -157.797035 -22.115497 165.467243 136.747177 12.405823 145.417985 -13.023636 3.957533 111.719999 -9.66869 -53.638138 -13.022022 -3.029916 2.9643 0.541928 70.313035 -77.668974 2.737793 -153.45393 -21.068135 121.743027 -5.421553 29.148878 -1.371764 -166.118751 -24.039564 145.078834 92.041078 -78.202753 63.112305 -145.122286 1.975632 -179.748429 -151.258014 -31.753372 -173.876896 -7.144572 -15.707645 -6.726705 -158.300615 52.461096 -149.872838 9.651092 34.836304 -11.198829 78.213105 23.862715 -53.93423 72.73037 -60.309721 99.199726 -13.155611 -8.022553 -22.044716 103.199692 36.330791 -60.111086 129.747513 -16.434137 -73.898999 148.044969 -11.079363 -119.902818 15.86248 39.129799 -5.501675 160.672195 -6.667898 -143.245604 -92.056615 -78.191545 -63.064677 145.109454 -0.667958 178.917137 150.276489 -35.129219 173.021172 9.593805 -19.935414 9.074771 147.287986 12.809905 143.890845 179.977541 75.749409 0.018479 100.016496 77.266497 -180.0 42.592986 -11.776025 100.032009 62.815129 -29.991212 151.014533 0.005664 -0.000645 0.005664 101.702671 -55.466808 -76.645636 -109.955959 -72.289581 -143.908692 100.984641 44.647426 173.299749
0.3629 46.3459 202.32999999999998 -17.647616 -24.323891 16.279201 11.52089 5.050466 -0.0 2.136872 -7.311046 4.864475 -9.239365 18.37235 -54.880926 34.384103 -2.251049 75.636608 -0.001653 0.0 -0.00264 -0.001653 0.0 -0.00264 -1.8e-05 0.000124 -0.00115 -104.451847 -11.178972 -140.986449 -87.62438 33.156489 -97.351295 -174.18348 -53.466434 158.04975 93.028312 -51.083608 40.50109 -137.417641 18.953198 99.061763 10.746599 -19.048211 -4.723546 170.473962 -46.959102 99.634126 -89.835704 60.702656 81.262768 3.401716 0.07889 0.17958 0.000637 0.063809 0.020248 -154.923079 5.441567 171.138391 -24.988561 -37.6597 -24.059657 10.323006 22.635653 5.204703 159.213005 -46.728966 -170.135042 -56.362378 -1.243932 30.300591 -29.595999 5.326592 -3.399357 -177.292106 40.869391 -169.453732 -81.276772 -49.994621 -32.240245 33.093771 8.544283 6.33991 4.705267 7.224414 -2.854775 158.951358 -8.720022 -110.052839 139.240582 37.933319 -127.556447 42.303167 58.340944 -36.544548 73.163114 -72.144134 90.197356 150.609369 -14.760385 -178.276481 -32.011634 83.320735 -6.235118 12.804356 -27.44165 13.521959 -179.999296 75.750464 -0.000726 95.121432 78.282843 84.535065 14.181779 37.323636 108.740823 -168.730703 0.509253 164.044336 0.000491 0.000748 -0.000631 98.449579 -55.617323 96.989423 91.230003 73.769817 7.650217 -123.934596 -47.087942 133.25592
